<?xml version="1.0" encoding="UTF-8"?>
<svg version="1.1" xmlns="http://www.w3.org/2000/svg" width="2272" height="1704">
<path d="M0 0 C9.74250399 8.30394541 19.01179229 17.03321064 28.09768677 26.04745483 C29.5194053 27.45726623 30.94506788 28.86309679 32.37084961 30.26879883 C37.71401111 35.60528197 42.66463506 41.09379272 47.35913086 47.01049805 C49.40308395 49.53468234 51.54566851 51.92789441 53.75 54.3125 C63.1694403 64.68207515 71.34666964 76.04090808 79.375 87.5 C83.43748499 86.92381272 86.1114732 85.62364829 89.5625 83.4375 C102.61558911 75.63124083 116.91937647 70.11929068 131.375 65.5 C132.41744873 65.16572998 132.41744873 65.16572998 133.48095703 64.82470703 C188.94767453 47.4105888 251.15946366 53.68307492 302.5703125 80.47265625 C303.83979439 81.14608126 305.10805281 81.82181836 306.375 82.5 C306.97795898 82.82081543 307.58091797 83.14163086 308.20214844 83.47216797 C326.02633489 93.0454967 341.74208879 105.5978322 356.375 119.5 C356.91060547 120.00692383 357.44621094 120.51384766 357.99804688 121.03613281 C384.40709682 146.20480527 402.7337421 178.13196474 414.375 212.5 C414.61347656 213.20060547 414.85195312 213.90121094 415.09765625 214.62304688 C422.2830726 236.15876617 424.59895416 258.46559279 424.5625 281.0625 C424.56156342 281.81455719 424.56062683 282.56661438 424.55966187 283.34146118 C424.4397211 327.84066564 411.79215634 373.18302756 385.375 409.5 C384.68019531 410.46679688 383.98539063 411.43359375 383.26953125 412.4296875 C365.72817526 436.33560628 345.07770295 456.36321365 320.13183594 472.36523438 C318.53611032 473.39593653 316.95833938 474.45430402 315.3828125 475.515625 C285.10267301 495.27401841 248.15259702 505.10933107 212.375 507.5 C212.34059814 508.05010742 212.30619629 508.60021484 212.27075195 509.16699219 C209.56038662 550.12922677 209.56038662 550.12922677 204.375 560.5 C205.02453644 560.44180084 205.67407288 560.38360168 206.34329224 560.32363892 C392.99722999 543.65590028 392.99722999 543.65590028 503.15234375 583.57421875 C507.78435021 587.58753894 509.58539002 590.67536755 510.0625 596.75 C509.73785822 604.98918458 504.66667281 610.56395622 498.875 616 C486.45779546 626.17028181 472.04671516 634.17483 458.375 642.5 C457.76495117 642.87286133 457.15490234 643.24572266 456.52636719 643.62988281 C448.06669803 648.77812184 439.28624939 653.20302994 430.375 657.5 C429.48635254 657.93441406 428.59770508 658.36882813 427.68212891 658.81640625 C363.68910065 689.961632 292.72501655 706.51011592 221.5655899 706.07519913 C219.26480623 706.06223118 216.96408341 706.05631449 214.66326904 706.05160522 C189.97078741 705.98302724 165.74596634 704.73269833 141.375 700.5 C140.14475098 700.29181641 138.91450195 700.08363281 137.64697266 699.86914062 C130.50178777 698.62684937 123.43983071 697.13259314 116.375 695.5 C114.36075267 695.05564683 112.34642794 694.61164437 110.33203125 694.16796875 C74.42730683 686.0754458 39.18661635 673.58396839 6.50048828 656.59960938 C4.18330888 655.40082968 1.85559204 654.2240023 -0.47265625 653.046875 C-25.74071424 640.16493208 -49.14856997 624.73518631 -71.625 607.5 C-72.22554199 607.04125488 -72.82608398 606.58250977 -73.44482422 606.10986328 C-89.0235452 594.17548862 -103.47265385 581.08177725 -117.625 567.5 C-118.16044434 566.98791992 -118.69588867 566.47583984 -119.24755859 565.94824219 C-124.86591707 560.55476923 -124.86591707 560.55476923 -126.625 558.5 C-126.625 557.84 -126.625 557.18 -126.625 556.5 C-127.945 555.84 -129.265 555.18 -130.625 554.5 C-130.625 553.84 -130.625 553.18 -130.625 552.5 C-131.285 552.5 -131.945 552.5 -132.625 552.5 C-134.03938406 550.92713316 -135.38104401 549.28860004 -136.6875 547.625 C-139.644142 543.92097155 -142.64272362 540.34028706 -145.875 536.875 C-152.29387455 529.81871108 -157.92045401 522.13435596 -163.625 514.5 C-164.11822754 513.84273926 -164.61145508 513.18547852 -165.11962891 512.50830078 C-175.93729719 498.06628919 -185.65526988 483.15454713 -194.625 467.5 C-195.01574707 466.82291992 -195.40649414 466.14583984 -195.80908203 465.44824219 C-201.054158 456.3491469 -205.93857078 447.11810204 -210.54711914 437.68115234 C-211.35276984 436.05087299 -212.17188616 434.42723558 -212.99780273 432.80712891 C-250.33202691 359.34593114 -264.23106539 271.93999713 -254.625 161.5 C-254.52834045 160.79955566 -254.43168091 160.09911133 -254.33209229 159.37744141 C-251.83496978 141.4984429 -248.21324649 123.9543727 -243.625 106.5 C-243.35961426 105.47600098 -243.09422852 104.45200195 -242.82080078 103.39697266 C-236.24920385 78.23793001 -227.10690686 54.27377107 -216.625 30.5 C-216.26019531 29.66968262 -215.89539063 28.83936523 -215.51953125 27.98388672 C-206.69726463 8.07885892 -195.58171965 -9.59665252 -180.625 -25.5 C-179.72587891 -26.51320313 -179.72587891 -26.51320313 -178.80859375 -27.546875 C-126.12601823 -84.43950515 -46.72104215 -39.31328424 0 0 Z " fill="#4373B2" transform="translate(925.625,619.5)"/>
<path d="M0 0 C0.90443848 0.48122314 0.90443848 0.48122314 1.82714844 0.97216797 C19.65133489 10.5454967 35.36708879 23.0978322 50 37 C50.53560547 37.50692383 51.07121094 38.01384766 51.62304688 38.53613281 C78.03209682 63.70480527 96.3587421 95.63196474 108 130 C108.35771484 131.0509082 108.35771484 131.0509082 108.72265625 132.12304688 C115.9080726 153.65876617 118.22395416 175.96559279 118.1875 198.5625 C118.18656342 199.31455719 118.18562683 200.06661438 118.18466187 200.84146118 C118.0647211 245.34066564 105.41715634 290.68302756 79 327 C78.30519531 327.96679688 77.61039063 328.93359375 76.89453125 329.9296875 C59.35317526 353.83560628 38.70270295 373.86321365 13.75683594 389.86523438 C12.16111032 390.89593653 10.58333938 391.95430402 9.0078125 393.015625 C-11.85255091 406.62742712 -35.83074593 414.94795212 -60 420.3125 C-61.07797852 420.55524658 -62.15595703 420.79799316 -63.26660156 421.0480957 C-73.75082553 423.24356986 -84.33783559 424.11889482 -95 425 C-95.02187378 423.07027344 -95.02187378 423.07027344 -95.04418945 421.1015625 C-95.44598377 382.95295085 -95.44598377 382.95295085 -99 345 C-99.11345764 344.17056885 -99.22691528 343.3411377 -99.34381104 342.48657227 C-107.01143804 287.20874339 -121.29656069 232.54177379 -140.79101562 180.25048828 C-142.01759916 176.9526827 -143.2219284 173.64742602 -144.421875 170.33984375 C-148.86865954 158.13270584 -153.51341197 146.00972151 -158.3125 133.9375 C-158.56134949 133.30797424 -158.81019897 132.67844849 -159.06658936 132.02984619 C-161.764466 125.21789232 -164.57810997 118.55444501 -167.97192383 112.05761719 C-169.22409585 109.55148899 -170.14331701 106.95119364 -171.09765625 104.3203125 C-179.36976993 83.04916303 -191.01398731 62.38036877 -203 43 C-203.46615723 42.24315918 -203.93231445 41.48631836 -204.41259766 40.70654297 C-210.25282774 31.25633871 -216.26337176 21.95574864 -222.69897461 12.89819336 C-226 8.20771356 -226 8.20771356 -226 6 C-209.73737618 -3.57146252 -192.98487824 -11.25293691 -175 -17 C-174.30503418 -17.22284668 -173.61006836 -17.44569336 -172.89404297 -17.67529297 C-115.66412652 -35.64297839 -52.56291641 -28.13629905 0 0 Z " fill="#8678B5" transform="translate(1232,702)"/>
<path d="M0 0 C1.08555176 0.29890137 2.17110352 0.59780273 3.28955078 0.90576172 C10.22875788 2.82465942 17.12508778 4.86258425 24 7 C24.8962207 7.27811523 25.79244141 7.55623047 26.71582031 7.84277344 C89.33865662 27.49409922 148.03359495 61.54230922 196.48828125 105.734375 C197.85482859 106.96703046 199.22763739 108.19340826 200.63012695 109.38500977 C206.67969618 114.55046564 212.29014793 120.13822224 217.90014648 125.76977539 C219.5592732 127.43426277 221.22368051 129.09333447 222.88867188 130.75195312 C228.4696494 136.3291788 233.89675259 141.97757118 239 148 C239.92497843 149.04873527 240.85198884 150.09568267 241.78125 151.140625 C260.29422876 172.2153815 276.61151391 195.6529037 290.75341797 219.87158203 C291.62981495 221.36794491 292.51219606 222.86081118 293.39892578 224.35107422 C300.27919435 235.92109364 306.3470462 247.6163631 311.74609375 259.94921875 C313.22157405 263.31939389 314.79706496 266.60400387 316.48046875 269.875 C319.34498812 275.53814316 321.62545545 281.38293356 323.875 287.3125 C324.30772217 288.44679443 324.74044434 289.58108887 325.1862793 290.74975586 C328.79806859 300.30155661 332.15735267 309.91366635 335.23730469 319.64941406 C335.96272641 321.88512482 336.74203427 324.09367593 337.5390625 326.3046875 C340.36939737 334.46440123 341.4719389 342.03427985 341.5625 350.6875 C341.57724365 351.62070068 341.5919873 352.55390137 341.60717773 353.51538086 C341.49674555 360.78472803 339.50327975 364.55361297 334.25 369.6875 C325.22813619 376.1069031 316.61723104 375.32575595 306 375 C305.87044922 376.43666016 305.87044922 376.43666016 305.73828125 377.90234375 C303.24543514 402.5121704 294.57162459 424.35130688 277 442 C276.36578125 442.66902344 275.7315625 443.33804687 275.078125 444.02734375 C266.4761257 452.42000236 253.63625261 457.70441275 242 460 C240.906875 460.226875 239.81375 460.45375 238.6875 460.6875 C206.92964102 463.37884398 178.29218376 450.87542308 154 431 C153.46101074 430.5663916 152.92202148 430.1327832 152.36669922 429.68603516 C107.09849517 393.10788224 78.78161544 336.11309167 71.734375 278.84130859 C71.31780256 274.89688832 71.11254452 270.96352434 71 267 C70.96003906 265.91460938 70.92007812 264.82921875 70.87890625 263.7109375 C70.71605792 255.37693496 71.4326612 247.20276273 72.3671875 238.93359375 C72.43784424 238.14992432 72.50850098 237.36625488 72.58129883 236.55883789 C73 234 73 234 74.11206055 231.14233398 C75.37019075 227.28336318 75.71024019 225.02906209 75 221 C70.66026202 214.07297539 64.02653115 208.67413123 58.0625 203.1875 C56.42297692 201.63188888 54.78686813 200.07267092 53.15429688 198.50976562 C50.84170959 196.29595583 48.52613013 194.08821156 46.18067932 191.90922546 C42.05077068 188.06271337 38.20810981 184.10590047 34.54914856 179.80703735 C32.00700628 176.84170131 29.30452264 174.02813837 26.625 171.1875 C21.99403785 166.23905028 17.59501805 161.18127256 13.359375 155.88671875 C11.09841351 153.12040991 8.76847788 150.43608693 6.40649414 147.7565918 C-1.16786179 139.15297188 -8.15057747 130.18679789 -15 121 C-15.87688477 119.83065918 -15.87688477 119.83065918 -16.77148438 118.63769531 C-28.51293044 102.96762487 -39.34520921 87.04213802 -49 70 C-49.36367676 69.360625 -49.72735352 68.72125 -50.10205078 68.0625 C-60.50560788 49.62703195 -69.78931119 29.68274537 -67 8 C-64.98967977 1.19171548 -60.97843279 -2.45722501 -55 -6 C-37.65280565 -11.78239812 -16.73925417 -4.6973937 0 0 Z " fill="#FCD914" transform="translate(1264,386)"/>
<path d="M0 0 C3.44414304 3.60433574 4.3060335 6.39311402 4.6875 11.25 C4.36285822 19.48918458 -0.70832719 25.06395622 -6.5 30.5 C-18.91720454 40.67028181 -33.32828484 48.67483 -47 57 C-47.91507324 57.55929199 -47.91507324 57.55929199 -48.84863281 58.12988281 C-57.30830197 63.27812184 -66.08875061 67.70302994 -75 72 C-75.88864746 72.43441406 -76.77729492 72.86882812 -77.69287109 73.31640625 C-141.68589935 104.461632 -212.64998345 121.01011592 -283.8094101 120.57519913 C-286.11019377 120.56223118 -288.41091659 120.55631449 -290.71173096 120.55160522 C-315.40421259 120.48302724 -339.62903366 119.23269833 -364 115 C-365.23024902 114.79181641 -366.46049805 114.58363281 -367.72802734 114.36914062 C-374.87321223 113.12684937 -381.93516929 111.63259314 -389 110 C-391.01424733 109.55564683 -393.02857206 109.11164437 -395.04296875 108.66796875 C-431.86379735 100.36896617 -467.46726523 87.294596 -501 70 C-502.093125 69.47921875 -503.18625 68.9584375 -504.3125 68.421875 C-507.49883932 66.7360792 -508.87184187 64.88331101 -511 62 C-511.845625 61.195625 -512.69125 60.39125 -513.5625 59.5625 C-517.33464343 55.59691331 -518.83128874 52.51840131 -519.4375 47.0625 C-519.08606429 40.18997936 -515.38272112 36.13241634 -510.625 31.5625 C-503.06994058 25.03918878 -486.36835329 13 -476 13 C-475.505 12.01 -475.505 12.01 -475 11 C-473.14453125 10.21875 -473.14453125 10.21875 -470.8125 9.5 C-470.00167969 9.24605469 -469.19085937 8.99210937 -468.35546875 8.73046875 C-467.57816406 8.48941406 -466.80085937 8.24835938 -466 8 C-464.88625 7.608125 -463.7725 7.21625 -462.625 6.8125 C-460 6 -460 6 -457 6 C-457 5.34 -457 4.68 -457 4 C-455.80503906 3.70996094 -455.80503906 3.70996094 -454.5859375 3.4140625 C-448.15040209 1.84779605 -448.15040209 1.84779605 -441.8125 -0.0625 C-438.65711961 -1.11429346 -435.50466364 -1.78694772 -432.24609375 -2.4375 C-429.92956893 -2.96123908 -429.92956893 -2.96123908 -427.55078125 -4 C-424.92828918 -5.02811328 -422.52569562 -5.54550013 -419.75 -6 C-414.79075043 -6.85185512 -409.90574138 -7.8868036 -405 -9 C-397.1373619 -10.76742169 -389.31118415 -12.31011852 -381.3359375 -13.46875 C-377.758762 -14.03841729 -374.23252478 -14.75680822 -370.6875 -15.5 C-363.96469243 -16.8822595 -357.27382721 -17.79519331 -350.4609375 -18.5703125 C-347.11267872 -18.93368569 -347.11267872 -18.93368569 -344.30859375 -19.58203125 C-340.71244612 -20.23311043 -337.59711617 -19.54871264 -334 -19 C-334 -19.66 -334 -20.32 -334 -21 C-331.54186484 -21.31412893 -329.08354304 -21.62658996 -326.625 -21.9375 C-325.89418213 -22.0303125 -325.16336426 -22.123125 -324.41040039 -22.21875 C-320.42298184 -22.71888332 -316.4422598 -23.15850885 -312.4375 -23.5 C-309.53679763 -23.76545529 -307.33275507 -24.2025565 -304.5 -25.0625 C-301.44158899 -25.88171723 -299.51376819 -26.07880879 -296.42480469 -26.00830078 C-291.14149596 -25.95992147 -285.96182777 -26.32829758 -280.703125 -26.8046875 C-278.6969051 -26.97742753 -276.69063656 -27.14960329 -274.68432617 -27.32128906 C-273.6374765 -27.41188599 -272.59062683 -27.50248291 -271.51205444 -27.5958252 C-53.39465901 -46.26285921 -53.39465901 -46.26285921 0 0 Z " fill="#0A8F4C" transform="translate(1431,1205)"/>
<path d="M0 0 C1.08555176 0.29890137 2.17110352 0.59780273 3.28955078 0.90576172 C10.22875788 2.82465942 17.12508778 4.86258425 24 7 C24.8962207 7.27811523 25.79244141 7.55623047 26.71582031 7.84277344 C89.33865662 27.49409922 148.03359495 61.54230922 196.48828125 105.734375 C197.85482859 106.96703046 199.22763739 108.19340826 200.63012695 109.38500977 C206.67969618 114.55046564 212.29014793 120.13822224 217.90014648 125.76977539 C219.5592732 127.43426277 221.22368051 129.09333447 222.88867188 130.75195312 C228.4696494 136.3291788 233.89675259 141.97757118 239 148 C239.92497843 149.04873527 240.85198884 150.09568267 241.78125 151.140625 C260.29422876 172.2153815 276.61151391 195.6529037 290.75341797 219.87158203 C291.62981495 221.36794491 292.51219606 222.86081118 293.39892578 224.35107422 C300.27919435 235.92109364 306.3470462 247.6163631 311.74609375 259.94921875 C313.22157405 263.31939389 314.79706496 266.60400387 316.48046875 269.875 C319.34498812 275.53814316 321.62545545 281.38293356 323.875 287.3125 C324.30772217 288.44679443 324.74044434 289.58108887 325.1862793 290.74975586 C328.79806859 300.30155661 332.15735267 309.91366635 335.23730469 319.64941406 C335.96272641 321.88512482 336.74203427 324.09367593 337.5390625 326.3046875 C340.36939737 334.46440123 341.4719389 342.03427985 341.5625 350.6875 C341.57724365 351.62070068 341.5919873 352.55390137 341.60717773 353.51538086 C341.49674555 360.78472803 339.50327975 364.55361297 334.25 369.6875 C326.0188588 375.54427354 317.83939857 375.8987351 308 375 C307.01 374.34 306.02 373.68 305 373 C304.55517578 370.04858398 304.55517578 370.04858398 304.4453125 366.24609375 C304.39078192 364.83168071 304.33557774 363.41729351 304.27978516 362.00292969 C304.25523254 361.25797241 304.23067993 360.51301514 304.2053833 359.7454834 C303.4910767 339.23615181 300.28573016 319.57850379 294 300 C293.70609375 299.0409375 293.4121875 298.081875 293.109375 297.09375 C290.89071583 290.09933295 288.15776727 283.35673131 285.28588867 276.61010742 C283 271.20239424 283 271.20239424 283 269 C282.34 269 281.68 269 281 269 C277.71428571 260.57142857 277.71428571 260.57142857 277 256 C276.34 256 275.68 256 275 256 C274.55269531 255.14277344 274.10539062 254.28554688 273.64453125 253.40234375 C269.72016734 245.88588964 269.72016734 245.88588964 265.0625 238.8125 C263 236 263 236 263 234 C262.34 234 261.68 234 261 234 C260.44441406 232.97261719 259.88882812 231.94523438 259.31640625 230.88671875 C257.21348627 227.21329864 254.71398742 223.99860039 251.9375 220.8125 C251.22339966 219.98274658 251.22339966 219.98274658 250.49487305 219.13623047 C249.00588761 217.41574459 247.50561763 215.70594217 246 214 C245.28021973 213.18329834 245.28021973 213.18329834 244.54589844 212.35009766 C239.05014218 206.14999806 233.47860823 200.19435314 227 195 C225.55173828 193.83017578 225.55173828 193.83017578 224.07421875 192.63671875 C200.77107788 174.10505496 171.66042507 159.1056914 141 162 C120.99607456 164.74809854 105.65869909 174.0454906 93.0625 189.625 C92.0200675 191.06797307 90.99837851 192.52620315 90 194 C89.49210937 194.71929688 88.98421875 195.43859375 88.4609375 196.1796875 C83.44332507 203.82189721 80.82197807 212.37395357 78 221 C75 221 75 221 73.35760498 219.72509766 C72.76360901 219.12745605 72.16961304 218.52981445 71.55761719 217.9140625 C70.8797113 217.23915771 70.20180542 216.56425293 69.50335693 215.86889648 C68.41114838 214.75816772 68.41114838 214.75816772 67.296875 213.625 C66.54085999 212.86711182 65.78484497 212.10922363 65.00592041 211.32836914 C63.40196695 209.71768037 61.80162175 208.10339173 60.20458984 206.48583984 C57.78068958 204.0310803 55.34656409 201.5868707 52.91015625 199.14453125 C51.3509437 197.57613577 49.79233121 196.00714346 48.234375 194.4375 C47.51433289 193.71320801 46.79429077 192.98891602 46.0524292 192.24267578 C42.07385345 188.20874371 38.24816553 184.08854495 34.55532837 179.79096985 C31.99638818 176.84433503 29.302477 174.02596973 26.625 171.1875 C21.99403785 166.23905028 17.59501805 161.18127256 13.359375 155.88671875 C11.09841351 153.12040991 8.76847788 150.43608693 6.40649414 147.7565918 C-1.16786179 139.15297188 -8.15057747 130.18679789 -15 121 C-15.87688477 119.83065918 -15.87688477 119.83065918 -16.77148438 118.63769531 C-28.51293044 102.96762487 -39.34520921 87.04213802 -49 70 C-49.36367676 69.360625 -49.72735352 68.72125 -50.10205078 68.0625 C-60.50560788 49.62703195 -69.78931119 29.68274537 -67 8 C-64.98967977 1.19171548 -60.97843279 -2.45722501 -55 -6 C-37.65280565 -11.78239812 -16.73925417 -4.6973937 0 0 Z " fill="#D82D2A" transform="translate(1264,386)"/>
<path d="M0 0 C0.90298828 0.4014624 0.90298828 0.4014624 1.82421875 0.81103516 C17.78078079 7.9761141 31.35999111 17.99093997 44 30 C45.36931218 31.17333723 46.74391787 32.34053966 48.125 33.5 C55.24171141 39.72170916 61.16913786 47.07959409 67.0625 54.4375 C67.55210205 55.04086182 68.0417041 55.64422363 68.54614258 56.26586914 C72 60.64701959 72 60.64701959 72 64 C72.66 64 73.32 64 74 64 C75.57353271 66.17965631 77.0191628 68.34741167 78.4375 70.625 C78.83259766 71.24246094 79.22769531 71.85992188 79.63476562 72.49609375 C86 82.55761231 86 82.55761231 86 86 C86.66 86 87.32 86 88 86 C90.02055843 90.39251833 91.40895235 94.15340923 92 99 C92.66 99 93.32 99 94 99 C102.37254342 117.44532277 108.59854483 135.92546756 112.56103516 155.80004883 C112.86201441 157.30846042 113.18031769 158.8134884 113.51318359 160.31518555 C115.38259033 169.35933019 115.6806956 178.48858535 116.125 187.6875 C116.21158945 189.37177834 116.29882416 191.05602364 116.38671875 192.74023438 C116.59858125 196.8264803 116.80172619 200.91307311 117 205 C69.7633144 191.72339758 28.34085853 166.04215657 -10.65283203 136.75292969 C-13.14110413 134.89461955 -15.64443306 133.05827243 -18.15234375 131.2265625 C-19.00530029 130.60281738 -19.85825684 129.97907227 -20.73706055 129.33642578 C-22.35581152 128.15346213 -23.9756807 126.97202634 -25.59692383 125.79248047 C-29.74922836 122.74742686 -33.73137254 119.60307679 -37.58105469 116.18164062 C-39.01111519 114.89914667 -39.01111519 114.89914667 -41 114 C-41 113.34 -41 112.68 -41 112 C-41.5775 111.731875 -42.155 111.46375 -42.75 111.1875 C-45.05550043 109.97070811 -47.02056192 108.69666121 -49 107 C-49 106.34 -49 105.68 -49 105 C-49.68191406 104.79117188 -50.36382813 104.58234375 -51.06640625 104.3671875 C-54.96344128 102.55099275 -57.75840414 99.98349738 -60.9375 97.125 C-62.27559675 95.94220481 -63.6141489 94.75992464 -64.953125 93.578125 C-65.62794922 92.97935547 -66.30277344 92.38058594 -66.99804688 91.76367188 C-70.02774021 89.09458594 -73.10936628 86.48785948 -76.1875 83.875 C-81.67942532 79.1913232 -87.02086855 74.36421146 -92.3203125 69.46484375 C-94.60590516 67.36249831 -96.91137881 65.29288115 -99.25 63.25 C-99.86230469 62.70601562 -100.47460938 62.16203125 -101.10546875 61.6015625 C-103.02639189 59.93678296 -103.02639189 59.93678296 -105.30078125 58.3359375 C-110.72879572 54.22977111 -110.72879572 54.22977111 -111.453125 50.9453125 C-111.04018669 44.49888667 -107.93978475 38.63585678 -105 33 C-104.22269531 31.50726562 -104.22269531 31.50726562 -103.4296875 29.984375 C-99.44864564 22.76295023 -94.81249684 16.83168 -89 11 C-88.23945312 10.21625 -87.47890625 9.4325 -86.6953125 8.625 C-63.33659397 -14.04444487 -27.98245662 -12.79100039 0 0 Z " fill="#F3B820" transform="translate(1453,556)"/>
<path d="M0 0 C1.72149856 3.44299712 -0.14941814 7.12476073 -1.125 10.6875 C-1.35509766 11.54093994 -1.58519531 12.39437988 -1.82226562 13.27368164 C-5.07706473 25.15658068 -8.95584124 36.7486183 -14 48 C-14.33628418 48.76086914 -14.67256836 49.52173828 -15.01904297 50.30566406 C-27.50821371 78.36190545 -45.47630714 103.96304505 -75.15380859 115.52294922 C-103.30380121 126.12591639 -132.70896897 123.10273276 -160.37084961 112.10644531 C-163.47051787 110.88449563 -166.42425775 109.90687025 -169.68359375 109.19140625 C-175.69869453 107.76595078 -181.11150675 104.78365483 -186.625 102.0625 C-187.73101563 101.52431641 -188.83703125 100.98613281 -189.9765625 100.43164062 C-192.9889605 98.96345867 -195.99671166 97.4867178 -199 96 C-200.06653809 95.49525146 -201.13307617 94.99050293 -202.23193359 94.47045898 C-205.46318575 92.75394534 -206.84085473 90.9252936 -209 88 C-209.845625 87.195625 -210.69125 86.39125 -211.5625 85.5625 C-215.33464343 81.59691331 -216.83128874 78.51840131 -217.4375 73.0625 C-217.08606429 66.18997936 -213.38272112 62.13241634 -208.625 57.5625 C-201.06994058 51.03918878 -184.36835329 39 -174 39 C-173.505 38.01 -173.505 38.01 -173 37 C-171.14453125 36.21875 -171.14453125 36.21875 -168.8125 35.5 C-168.00167969 35.24605469 -167.19085937 34.99210937 -166.35546875 34.73046875 C-165.57816406 34.48941406 -164.80085937 34.24835938 -164 34 C-162.88625 33.608125 -161.7725 33.21625 -160.625 32.8125 C-158 32 -158 32 -155 32 C-155 31.34 -155 30.68 -155 30 C-153.80503906 29.70996094 -153.80503906 29.70996094 -152.5859375 29.4140625 C-146.15040209 27.84779605 -146.15040209 27.84779605 -139.8125 25.9375 C-136.65711961 24.88570654 -133.50466364 24.21305228 -130.24609375 23.5625 C-127.92956893 23.03876092 -127.92956893 23.03876092 -125.55078125 22 C-122.92828918 20.97188672 -120.52569562 20.45449987 -117.75 20 C-112.79075043 19.14814488 -107.90574138 18.1131964 -103 17 C-95.1373619 15.23257831 -87.31118415 13.68988148 -79.3359375 12.53125 C-75.758762 11.96158271 -72.23252478 11.24319178 -68.6875 10.5 C-61.96469243 9.1177405 -55.27382721 8.20480669 -48.4609375 7.4296875 C-45.11267872 7.06631431 -45.11267872 7.06631431 -42.30859375 6.41796875 C-38.71244612 5.76688957 -35.59711617 6.45128736 -32 7 C-32 6.34 -32 5.68 -32 5 C-29.54186491 4.68587107 -27.08353866 4.3734441 -24.625 4.0625 C-23.89490723 3.9696875 -23.16481445 3.876875 -22.41259766 3.78125 C-18.40360225 3.27802141 -14.40182404 2.83968608 -10.375 2.5 C-6.69205425 2.15783443 -3.46040092 1.36594773 0 0 Z " fill="#01898F" transform="translate(1129,1179)"/>
<path d="M0 0 C2.33571836 2.84348322 2.54012533 6.14554095 2.4453125 9.7890625 C1.5533275 14.21768976 -1.26587473 17.50922146 -4 21 C-4.40992188 21.57363281 -4.81984375 22.14726562 -5.2421875 22.73828125 C-22.48482049 45.17512356 -56.4777546 59.03412009 -82 69 C-83.16329834 69.45584473 -83.16329834 69.45584473 -84.35009766 69.92089844 C-101.54258625 76.5955874 -119.04011788 81.94126837 -137.11816406 85.61376953 C-138.71546676 85.94160203 -140.30763308 86.29430556 -141.8984375 86.65234375 C-155.83517602 89.58977941 -172.10070053 90.82078225 -185.5625 85.625 C-186.366875 85.08875 -187.17125 84.5525 -188 84 C-188.78375 83.484375 -189.5675 82.96875 -190.375 82.4375 C-193.04188415 78.43717377 -192.87746309 74.64095714 -192 70 C-186.97709422 58.44339257 -175.17006788 49.78004525 -165 43 C-164.17000488 42.4440918 -164.17000488 42.4440918 -163.32324219 41.87695312 C-130.4536264 20.06067583 -39.00533202 -28.83002801 0 0 Z " fill="#E62385" transform="translate(1075,392)"/>
<path d="M0 0 C4.84994095 0.61562718 9.11365038 2.07286446 13.625 3.875 C20.3106014 6.47374794 26.9781088 8.48390986 34 10 C31 12 31 12 28.8984375 11.8359375 C24.72932523 10.63352507 20.68693078 9.14665209 16.625 7.625 C15.8 7.32078125 14.975 7.0165625 14.125 6.703125 C9.35396785 4.93102734 4.65958835 3.04720458 0 1 C0 0.67 0 0.34 0 0 Z " fill="#006E46" transform="translate(960,1288)"/>
</svg>
